<?xml version="1.0" encoding="us-ascii" standalone="no"?><svg xmlns="http://www.w3.org/2000/svg" xmlns:xlink="http://www.w3.org/1999/xlink" contentStyleType="text/css" height="454px" preserveAspectRatio="none" style="width:1162px;height:454px;background:#FFFFFF;" version="1.1" viewBox="0 0 1162 454" width="1162px" zoomAndPan="magnify"><defs/><g><!--class FileConverter--><g id="elem_FileConverter"><rect codeLine="3" fill="#F1F1F1" height="65.6094" id="FileConverter" rx="2.5" ry="2.5" style="stroke:#181818;stroke-width:0.5;" width="266" x="818.5" y="7"/><ellipse cx="904.75" cy="23" fill="#B4A7E5" rx="11" ry="11" style="stroke:#181818;stroke-width:1.0;"/><path d="M905.7031,19.6406 L905.7031,26.2969 L907.4219,26.2969 Q908.0313,26.2969 908.2969,26.5313 Q908.5625,26.7656 908.5625,27.1563 Q908.5625,27.5313 908.2969,27.7656 Q908.0313,28 907.4219,28 L902.2813,28 Q901.6719,28 901.4063,27.7656 Q901.1406,27.5313 901.1406,27.1406 Q901.1406,26.7656 901.4063,26.5313 Q901.6719,26.2969 902.2813,26.2969 L904,26.2969 L904,19.6406 L902.2813,19.6406 Q901.6719,19.6406 901.4063,19.4063 Q901.1406,19.1719 901.1406,18.7813 Q901.1406,18.4063 901.4063,18.1719 Q901.6719,17.9375 902.2813,17.9375 L907.4219,17.9375 Q908.0313,17.9375 908.2969,18.1719 Q908.5625,18.4063 908.5625,18.7813 Q908.5625,19.1719 908.2969,19.4063 Q908.0313,19.6406 907.4219,19.6406 L905.7031,19.6406 Z " fill="#000000"/><text fill="#000000" font-family="sans-serif" font-size="14" font-style="italic" lengthAdjust="spacing" textLength="85" x="925.25" y="28.7285">FileConverter</text><line style="stroke:#181818;stroke-width:0.5;" x1="819.5" x2="1083.5" y1="39" y2="39"/><line style="stroke:#181818;stroke-width:0.5;" x1="819.5" x2="1083.5" y1="47" y2="47"/><ellipse cx="829.5" cy="61.3047" fill="#84BE84" rx="3" ry="3" style="stroke:#038048;stroke-width:1.0;"/><text fill="#000000" font-family="sans-serif" font-size="14" lengthAdjust="spacing" textLength="240" x="838.5" y="65.5332">convertToJson(content: String): String</text></g><!--class XmlConverter--><g id="elem_XmlConverter"><rect codeLine="8" fill="#F1F1F1" height="65.6094" id="XmlConverter" rx="2.5" ry="2.5" style="stroke:#181818;stroke-width:0.5;" width="266" x="818.5" y="194.5"/><ellipse cx="904.75" cy="210.5" fill="#ADD1B2" rx="11" ry="11" style="stroke:#181818;stroke-width:1.0;"/><path d="M907.5156,206.375 Q907.6719,206.1563 907.8594,206.0469 Q908.0469,205.9375 908.2656,205.9375 Q908.6406,205.9375 908.875,206.2031 Q909.1094,206.4531 909.1094,207.0625 L909.1094,208.5156 Q909.1094,209.125 908.875,209.3906 Q908.6406,209.6563 908.2656,209.6563 Q907.9219,209.6563 907.7188,209.4531 Q907.5156,209.2656 907.4063,208.75 Q907.3594,208.3906 907.1719,208.2031 Q906.8438,207.8281 906.2344,207.6094 Q905.625,207.3906 905,207.3906 Q904.2344,207.3906 903.5938,207.7188 Q902.9688,208.0469 902.4688,208.7969 Q901.9844,209.5469 901.9844,210.5781 L901.9844,211.6719 Q901.9844,212.9063 902.875,213.7344 Q903.7656,214.5469 905.3594,214.5469 Q906.2969,214.5469 906.9531,214.2969 Q907.3438,214.1406 907.7656,213.7031 Q908.0313,213.4375 908.1719,213.3594 Q908.3281,213.2813 908.5313,213.2813 Q908.8594,213.2813 909.1094,213.5469 Q909.375,213.7969 909.375,214.1406 Q909.375,214.4844 909.0313,214.8906 Q908.5313,215.4688 907.7344,215.7969 Q906.6563,216.25 905.3594,216.25 Q903.8438,216.25 902.6406,215.625 Q901.6563,215.125 900.9688,214.0625 Q900.2813,212.9844 900.2813,211.7031 L900.2813,210.5469 Q900.2813,209.2188 900.8906,208.0781 Q901.5156,206.9219 902.6094,206.3125 Q903.7031,205.6875 904.9375,205.6875 Q905.6719,205.6875 906.3125,205.8594 Q906.9688,206.0156 907.5156,206.375 Z " fill="#000000"/><text fill="#000000" font-family="sans-serif" font-size="14" lengthAdjust="spacing" textLength="85" x="925.25" y="216.2285">XmlConverter</text><line style="stroke:#181818;stroke-width:0.5;" x1="819.5" x2="1083.5" y1="226.5" y2="226.5"/><line style="stroke:#181818;stroke-width:0.5;" x1="819.5" x2="1083.5" y1="234.5" y2="234.5"/><ellipse cx="829.5" cy="248.8047" fill="#84BE84" rx="3" ry="3" style="stroke:#038048;stroke-width:1.0;"/><text fill="#000000" font-family="sans-serif" font-size="14" lengthAdjust="spacing" textLength="240" x="838.5" y="253.0332">convertToJson(content: String): String</text></g><!--class CsvConverter--><g id="elem_CsvConverter"><rect codeLine="12" fill="#F1F1F1" height="65.6094" id="CsvConverter" rx="2.5" ry="2.5" style="stroke:#181818;stroke-width:0.5;" width="266" x="531.5" y="382"/><ellipse cx="616.75" cy="398" fill="#ADD1B2" rx="11" ry="11" style="stroke:#181818;stroke-width:1.0;"/><path d="M619.5156,393.875 Q619.6719,393.6563 619.8594,393.5469 Q620.0469,393.4375 620.2656,393.4375 Q620.6406,393.4375 620.875,393.7031 Q621.1094,393.9531 621.1094,394.5625 L621.1094,396.0156 Q621.1094,396.625 620.875,396.8906 Q620.6406,397.1563 620.2656,397.1563 Q619.9219,397.1563 619.7188,396.9531 Q619.5156,396.7656 619.4063,396.25 Q619.3594,395.8906 619.1719,395.7031 Q618.8438,395.3281 618.2344,395.1094 Q617.625,394.8906 617,394.8906 Q616.2344,394.8906 615.5938,395.2188 Q614.9688,395.5469 614.4688,396.2969 Q613.9844,397.0469 613.9844,398.0781 L613.9844,399.1719 Q613.9844,400.4063 614.875,401.2344 Q615.7656,402.0469 617.3594,402.0469 Q618.2969,402.0469 618.9531,401.7969 Q619.3438,401.6406 619.7656,401.2031 Q620.0313,400.9375 620.1719,400.8594 Q620.3281,400.7813 620.5313,400.7813 Q620.8594,400.7813 621.1094,401.0469 Q621.375,401.2969 621.375,401.6406 Q621.375,401.9844 621.0313,402.3906 Q620.5313,402.9688 619.7344,403.2969 Q618.6563,403.75 617.3594,403.75 Q615.8438,403.75 614.6406,403.125 Q613.6563,402.625 612.9688,401.5625 Q612.2813,400.4844 612.2813,399.2031 L612.2813,398.0469 Q612.2813,396.7188 612.8906,395.5781 Q613.5156,394.4219 614.6094,393.8125 Q615.7031,393.1875 616.9375,393.1875 Q617.6719,393.1875 618.3125,393.3594 Q618.9688,393.5156 619.5156,393.875 Z " fill="#000000"/><text fill="#000000" font-family="sans-serif" font-size="14" lengthAdjust="spacing" textLength="87" x="637.25" y="403.7285">CsvConverter</text><line style="stroke:#181818;stroke-width:0.5;" x1="532.5" x2="796.5" y1="414" y2="414"/><line style="stroke:#181818;stroke-width:0.5;" x1="532.5" x2="796.5" y1="422" y2="422"/><ellipse cx="542.5" cy="436.3047" fill="#84BE84" rx="3" ry="3" style="stroke:#038048;stroke-width:1.0;"/><text fill="#000000" font-family="sans-serif" font-size="14" lengthAdjust="spacing" textLength="240" x="551.5" y="440.5332">convertToJson(content: String): String</text></g><!--class HtmlConverter--><g id="elem_HtmlConverter"><rect codeLine="16" fill="#F1F1F1" height="100.8281" id="HtmlConverter" rx="2.5" ry="2.5" style="stroke:#181818;stroke-width:0.5;" width="372" x="411.5" y="177"/><ellipse cx="548.25" cy="193" fill="#ADD1B2" rx="11" ry="11" style="stroke:#181818;stroke-width:1.0;"/><path d="M551.0156,188.875 Q551.1719,188.6563 551.3594,188.5469 Q551.5469,188.4375 551.7656,188.4375 Q552.1406,188.4375 552.375,188.7031 Q552.6094,188.9531 552.6094,189.5625 L552.6094,191.0156 Q552.6094,191.625 552.375,191.8906 Q552.1406,192.1563 551.7656,192.1563 Q551.4219,192.1563 551.2188,191.9531 Q551.0156,191.7656 550.9063,191.25 Q550.8594,190.8906 550.6719,190.7031 Q550.3438,190.3281 549.7344,190.1094 Q549.125,189.8906 548.5,189.8906 Q547.7344,189.8906 547.0938,190.2188 Q546.4688,190.5469 545.9688,191.2969 Q545.4844,192.0469 545.4844,193.0781 L545.4844,194.1719 Q545.4844,195.4063 546.375,196.2344 Q547.2656,197.0469 548.8594,197.0469 Q549.7969,197.0469 550.4531,196.7969 Q550.8438,196.6406 551.2656,196.2031 Q551.5313,195.9375 551.6719,195.8594 Q551.8281,195.7813 552.0313,195.7813 Q552.3594,195.7813 552.6094,196.0469 Q552.875,196.2969 552.875,196.6406 Q552.875,196.9844 552.5313,197.3906 Q552.0313,197.9688 551.2344,198.2969 Q550.1563,198.75 548.8594,198.75 Q547.3438,198.75 546.1406,198.125 Q545.1563,197.625 544.4688,196.5625 Q543.7813,195.4844 543.7813,194.2031 L543.7813,193.0469 Q543.7813,191.7188 544.3906,190.5781 Q545.0156,189.4219 546.1094,188.8125 Q547.2031,188.1875 548.4375,188.1875 Q549.1719,188.1875 549.8125,188.3594 Q550.4688,188.5156 551.0156,188.875 Z " fill="#000000"/><text fill="#000000" font-family="sans-serif" font-size="14" lengthAdjust="spacing" textLength="90" x="568.75" y="198.7285">HtmlConverter</text><line style="stroke:#181818;stroke-width:0.5;" x1="412.5" x2="782.5" y1="209" y2="209"/><line style="stroke:#181818;stroke-width:0.5;" x1="412.5" x2="782.5" y1="217" y2="217"/><rect fill="#F24D5C" height="6" style="stroke:#C82930;stroke-width:1.0;" width="6" x="419.5" y="228.3047"/><text fill="#000000" font-family="sans-serif" font-size="14" lengthAdjust="spacing" textLength="316" x="431.5" y="235.5332">extractTagContent(html: String, tag: String): String</text><rect fill="#F24D5C" height="6" style="stroke:#C82930;stroke-width:1.0;" width="6" x="419.5" y="245.9141"/><text fill="#000000" font-family="sans-serif" font-size="14" lengthAdjust="spacing" textLength="346" x="431.5" y="253.1426">extractAllTagContents(html: String, tag: String): String[]</text><ellipse cx="422.5" cy="266.5234" fill="#84BE84" rx="3" ry="3" style="stroke:#038048;stroke-width:1.0;"/><text fill="#000000" font-family="sans-serif" font-size="14" lengthAdjust="spacing" textLength="240" x="431.5" y="270.752">convertToJson(content: String): String</text></g><!--class ConversionFacade--><g id="elem_ConversionFacade"><rect codeLine="22" fill="#F1F1F1" height="188.875" id="ConversionFacade" rx="2.5" ry="2.5" style="stroke:#181818;stroke-width:0.5;" width="369" x="7" y="133"/><ellipse cx="127.25" cy="149" fill="#ADD1B2" rx="11" ry="11" style="stroke:#181818;stroke-width:1.0;"/><path d="M130.0156,144.875 Q130.1719,144.6563 130.3594,144.5469 Q130.5469,144.4375 130.7656,144.4375 Q131.1406,144.4375 131.375,144.7031 Q131.6094,144.9531 131.6094,145.5625 L131.6094,147.0156 Q131.6094,147.625 131.375,147.8906 Q131.1406,148.1563 130.7656,148.1563 Q130.4219,148.1563 130.2188,147.9531 Q130.0156,147.7656 129.9063,147.25 Q129.8594,146.8906 129.6719,146.7031 Q129.3438,146.3281 128.7344,146.1094 Q128.125,145.8906 127.5,145.8906 Q126.7344,145.8906 126.0938,146.2188 Q125.4688,146.5469 124.9688,147.2969 Q124.4844,148.0469 124.4844,149.0781 L124.4844,150.1719 Q124.4844,151.4063 125.375,152.2344 Q126.2656,153.0469 127.8594,153.0469 Q128.7969,153.0469 129.4531,152.7969 Q129.8438,152.6406 130.2656,152.2031 Q130.5313,151.9375 130.6719,151.8594 Q130.8281,151.7813 131.0313,151.7813 Q131.3594,151.7813 131.6094,152.0469 Q131.875,152.2969 131.875,152.6406 Q131.875,152.9844 131.5313,153.3906 Q131.0313,153.9688 130.2344,154.2969 Q129.1563,154.75 127.8594,154.75 Q126.3438,154.75 125.1406,154.125 Q124.1563,153.625 123.4688,152.5625 Q122.7813,151.4844 122.7813,150.2031 L122.7813,149.0469 Q122.7813,147.7188 123.3906,146.5781 Q124.0156,145.4219 125.1094,144.8125 Q126.2031,144.1875 127.4375,144.1875 Q128.1719,144.1875 128.8125,144.3594 Q129.4688,144.5156 130.0156,144.875 Z " fill="#000000"/><text fill="#000000" font-family="sans-serif" font-size="14" lengthAdjust="spacing" textLength="120" x="147.75" y="154.7285">ConversionFacade</text><line style="stroke:#181818;stroke-width:0.5;" x1="8" x2="375" y1="165" y2="165"/><rect fill="none" height="6" style="stroke:#C82930;stroke-width:1.0;" width="6" x="15" y="176.3047"/><text fill="#000000" font-family="sans-serif" font-size="14" lengthAdjust="spacing" textLength="176" x="27" y="183.5332">xmlConverter: XmlConverter</text><rect fill="none" height="6" style="stroke:#C82930;stroke-width:1.0;" width="6" x="15" y="193.9141"/><text fill="#000000" font-family="sans-serif" font-size="14" lengthAdjust="spacing" textLength="179" x="27" y="201.1426">csvConverter: CsvConverter</text><rect fill="none" height="6" style="stroke:#C82930;stroke-width:1.0;" width="6" x="15" y="211.5234"/><text fill="#000000" font-family="sans-serif" font-size="14" lengthAdjust="spacing" textLength="187" x="27" y="218.752">htmlConverter: HtmlConverter</text><line style="stroke:#181818;stroke-width:0.5;" x1="8" x2="375" y1="225.8281" y2="225.8281"/><ellipse cx="18" cy="240.1328" fill="#84BE84" rx="3" ry="3" style="stroke:#038048;stroke-width:1.0;"/><text fill="#000000" font-family="sans-serif" font-size="14" lengthAdjust="spacing" textLength="130" x="27" y="244.3613">ConversionFacade()</text><ellipse cx="18" cy="257.7422" fill="#84BE84" rx="3" ry="3" style="stroke:#038048;stroke-width:1.0;"/><text fill="#000000" font-family="sans-serif" font-size="14" lengthAdjust="spacing" textLength="285" x="27" y="261.9707">convertXmlToJson(xmlContent: String): String</text><ellipse cx="18" cy="275.3516" fill="#84BE84" rx="3" ry="3" style="stroke:#038048;stroke-width:1.0;"/><text fill="#000000" font-family="sans-serif" font-size="14" lengthAdjust="spacing" textLength="288" x="27" y="279.5801">convertCsvToJson(csvContent: String): String</text><ellipse cx="18" cy="292.9609" fill="#84BE84" rx="3" ry="3" style="stroke:#038048;stroke-width:1.0;"/><text fill="#000000" font-family="sans-serif" font-size="14" lengthAdjust="spacing" textLength="296" x="27" y="297.1895">convertHtmlToJson(htmlContent: String): String</text><ellipse cx="18" cy="310.5703" fill="#84BE84" rx="3" ry="3" style="stroke:#038048;stroke-width:1.0;"/><text fill="#000000" font-family="sans-serif" font-size="14" lengthAdjust="spacing" textLength="343" x="27" y="314.7988">convertToJson(content: String, fileType: String): String</text></g><!--reverse link FileConverter to XmlConverter--><g id="link_FileConverter_XmlConverter"><path codeLine="35" d="M951.5,91.31 C951.5,125.26 951.5,160.33 951.5,194.25 " fill="none" id="FileConverter-backto-XmlConverter" style="stroke:#181818;stroke-width:1.0;stroke-dasharray:7.0,7.0;"/><polygon fill="none" points="951.5,73.31,945.5,91.31,957.5,91.31,951.5,73.31" style="stroke:#181818;stroke-width:1.0;"/></g><!--reverse link FileConverter to CsvConverter--><g id="link_FileConverter_CsvConverter"><path codeLine="36" d="M1052.3884,81.8009 C1078.2184,96.0209 1087.84,106.9 1102.5,133 C1143.64,206.24 1155.44,256.78 1102.5,322 C1064.55,368.75 911.99,392.62 797.51,404.17 " fill="none" id="FileConverter-backto-CsvConverter" style="stroke:#181818;stroke-width:1.0;stroke-dasharray:7.0,7.0;"/><polygon fill="none" points="1036.62,73.12,1049.4948,87.057,1055.282,76.5447,1036.62,73.12" style="stroke:#181818;stroke-width:1.0;"/></g><!--reverse link FileConverter to HtmlConverter--><g id="link_FileConverter_HtmlConverter"><path codeLine="37" d="M874.2965,81.4549 C819.7765,110.0249 755.12,143.91 692.28,176.83 " fill="none" id="FileConverter-backto-HtmlConverter" style="stroke:#181818;stroke-width:1.0;stroke-dasharray:7.0,7.0;"/><polygon fill="none" points="890.24,73.1,871.5115,76.1403,877.0814,86.7694,890.24,73.1" style="stroke:#181818;stroke-width:1.0;"/></g><!--link ConversionFacade to XmlConverter--><g id="link_ConversionFacade_XmlConverter"><path codeLine="39" d="M334.27,132.86 C358.96,120.54 385.05,109.85 411,103 C491.15,81.85 705.31,76.96 784,103 C838.18,120.93 876.2121,151.3438 907.3721,181.7738 " fill="none" id="ConversionFacade-to-XmlConverter" style="stroke:#181818;stroke-width:1.0;"/><polygon fill="none" points="920.25,194.35,911.5642,177.4812,903.1801,186.0664,920.25,194.35" style="stroke:#181818;stroke-width:1.0;"/></g><!--link ConversionFacade to CsvConverter--><g id="link_ConversionFacade_CsvConverter"><path codeLine="40" d="M376.09,314.9 C381.95,317.33 387.76,319.7 393.5,322 C448.28,343.91 493.4452,359.7148 544.4652,376.3348 " fill="none" id="ConversionFacade-to-CsvConverter" style="stroke:#181818;stroke-width:1.0;"/><polygon fill="none" points="561.58,381.91,546.3236,370.6298,542.6068,382.0397,561.58,381.91" style="stroke:#181818;stroke-width:1.0;"/></g><!--link ConversionFacade to HtmlConverter--><g id="link_ConversionFacade_HtmlConverter"><path codeLine="41" d="M376.26,227.5 C387.93,227.5 381.6,227.5 393.26,227.5 " fill="none" id="ConversionFacade-to-HtmlConverter" style="stroke:#181818;stroke-width:1.0;"/><polygon fill="none" points="411.26,227.5,393.26,221.5,393.26,233.5,411.26,227.5" style="stroke:#181818;stroke-width:1.0;"/></g><!--SRC=[fL91QiCm4Bph5NkBGvCym9H2COIsnyI7GkbXKJUEGP6Aj8IKfd-l5DlOiWKfwKtIpkpCZdO6pvh9xb2I4tLtX7Mjg33wIDQ_mBS0k9FDjJGlpkZCtvWqvx1bM-jgtXt4Zn0pA1GwHmuyIbfYT4A65tWzg9kxDXqAT_ndXoSUcrZIYIrABh4g6dgszw2EkW36QjgmvpqgrLFT7xXlxpUDVi6xskWrIloWnljfC4qU1HogSX1N7eKNgdkEo54omU5OCPiFV7kfrdfZ8Us-ntlnRjIBZMluuAObj3wlCT99Bc3dbxdy-gHajdvRDwHG-Y7nu6d6YNZvxy-hLPnheXubcwZ7qOh9LoxF3x76514WaKoooKZe5m00]--></g></svg>